<?xml version="1.0" encoding="UTF-8" standalone="no"?><svg xmlns="http://www.w3.org/2000/svg" xmlns:xlink="http://www.w3.org/1999/xlink" contentScriptType="application/ecmascript" contentStyleType="text/css" height="451px" preserveAspectRatio="none" style="width:949px;height:451px;" version="1.1" viewBox="0 0 949 451" width="949px" zoomAndPan="magnify"><defs><filter height="300%" id="fa0jo8n3qd9lq" width="300%" x="-1" y="-1"><feGaussianBlur result="blurOut" stdDeviation="2.0"/><feColorMatrix in="blurOut" result="blurOut2" type="matrix" values="0 0 0 0 0 0 0 0 0 0 0 0 0 0 0 0 0 0 .4 0"/><feOffset dx="4.0" dy="4.0" in="blurOut2" result="blurOut3"/><feBlend in="SourceGraphic" in2="blurOut3" mode="normal"/></filter></defs><g><!--MD5=[ac6bea31e13c94c7baa9ad18feb7405e]
class Ticket--><rect codeLine="1" fill="#FEFECE" filter="url(#fa0jo8n3qd9lq)" height="99.2188" id="Ticket" style="stroke:#A80036;stroke-width:1.5;" width="119" x="196.5" y="20"/><ellipse cx="234" cy="36" fill="#ADD1B2" rx="11" ry="11" style="stroke:#A80036;stroke-width:1.0;"/><path d="M236.9688,41.6406 Q236.3906,41.9375 235.75,42.0781 Q235.1094,42.2344 234.4063,42.2344 Q231.9063,42.2344 230.5781,40.5938 Q229.2656,38.9375 229.2656,35.8125 Q229.2656,32.6875 230.5781,31.0313 Q231.9063,29.375 234.4063,29.375 Q235.1094,29.375 235.75,29.5313 Q236.4063,29.6875 236.9688,29.9844 L236.9688,32.7031 Q236.3438,32.125 235.75,31.8594 Q235.1563,31.5781 234.5313,31.5781 Q233.1875,31.5781 232.5,32.6563 Q231.8125,33.7188 231.8125,35.8125 Q231.8125,37.9063 232.5,38.9844 Q233.1875,40.0469 234.5313,40.0469 Q235.1563,40.0469 235.75,39.7813 Q236.3438,39.5 236.9688,38.9219 L236.9688,41.6406 Z " fill="#000000"/><text fill="#000000" font-family="sans-serif" font-size="12" lengthAdjust="spacing" textLength="37" x="253" y="40.1543">Ticket</text><line style="stroke:#A80036;stroke-width:1.5;" x1="197.5" x2="314.5" y1="52" y2="52"/><text fill="#000000" font-family="sans-serif" font-size="11" lengthAdjust="spacing" textLength="52" x="202.5" y="66.2104">Plan plan</text><text fill="#000000" font-family="sans-serif" font-size="11" lengthAdjust="spacing" textLength="70" x="202.5" y="79.0151">Movie movie</text><text fill="#000000" font-family="sans-serif" font-size="11" lengthAdjust="spacing" textLength="89" x="202.5" y="91.8198">Theater theater</text><text fill="#000000" font-family="sans-serif" font-size="11" lengthAdjust="spacing" textLength="107" x="202.5" y="104.6245">DateTime useTime</text><line style="stroke:#A80036;stroke-width:1.5;" x1="197.5" x2="314.5" y1="111.2188" y2="111.2188"/><!--MD5=[e69084ab16b022bdbef99762ea85e9d6]
class Movie--><rect codeLine="8" fill="#FEFECE" filter="url(#fa0jo8n3qd9lq)" height="73.6094" id="Movie" style="stroke:#A80036;stroke-width:1.5;" width="154" x="7" y="32.5"/><ellipse cx="62.25" cy="48.5" fill="#ADD1B2" rx="11" ry="11" style="stroke:#A80036;stroke-width:1.0;"/><path d="M65.2188,54.1406 Q64.6406,54.4375 64,54.5781 Q63.3594,54.7344 62.6563,54.7344 Q60.1563,54.7344 58.8281,53.0938 Q57.5156,51.4375 57.5156,48.3125 Q57.5156,45.1875 58.8281,43.5313 Q60.1563,41.875 62.6563,41.875 Q63.3594,41.875 64,42.0313 Q64.6563,42.1875 65.2188,42.4844 L65.2188,45.2031 Q64.5938,44.625 64,44.3594 Q63.4063,44.0781 62.7813,44.0781 Q61.4375,44.0781 60.75,45.1563 Q60.0625,46.2188 60.0625,48.3125 Q60.0625,50.4063 60.75,51.4844 Q61.4375,52.5469 62.7813,52.5469 Q63.4063,52.5469 64,52.2813 Q64.5938,52 65.2188,51.4219 L65.2188,54.1406 Z " fill="#000000"/><text fill="#000000" font-family="sans-serif" font-size="12" lengthAdjust="spacing" textLength="35" x="82.75" y="52.6543">Movie</text><line style="stroke:#A80036;stroke-width:1.5;" x1="8" x2="160" y1="64.5" y2="64.5"/><text fill="#000000" font-family="sans-serif" font-size="11" lengthAdjust="spacing" textLength="59" x="13" y="78.7104">String title</text><text fill="#000000" font-family="sans-serif" font-size="11" lengthAdjust="spacing" textLength="142" x="13" y="91.5151">DateTime screeningTime</text><line style="stroke:#A80036;stroke-width:1.5;" x1="8" x2="160" y1="98.1094" y2="98.1094"/><!--MD5=[6fa3e4350d44af662413ad1d54c020bd]
class Theater--><rect codeLine="13" fill="#FEFECE" filter="url(#fa0jo8n3qd9lq)" height="86.4141" id="Theater" style="stroke:#A80036;stroke-width:1.5;" width="125" x="183.5" y="205"/><ellipse cx="218.3" cy="221" fill="#ADD1B2" rx="11" ry="11" style="stroke:#A80036;stroke-width:1.0;"/><path d="M221.2688,226.6406 Q220.6906,226.9375 220.05,227.0781 Q219.4094,227.2344 218.7063,227.2344 Q216.2063,227.2344 214.8781,225.5938 Q213.5656,223.9375 213.5656,220.8125 Q213.5656,217.6875 214.8781,216.0313 Q216.2063,214.375 218.7063,214.375 Q219.4094,214.375 220.05,214.5313 Q220.7063,214.6875 221.2688,214.9844 L221.2688,217.7031 Q220.6438,217.125 220.05,216.8594 Q219.4563,216.5781 218.8313,216.5781 Q217.4875,216.5781 216.8,217.6563 Q216.1125,218.7188 216.1125,220.8125 Q216.1125,222.9063 216.8,223.9844 Q217.4875,225.0469 218.8313,225.0469 Q219.4563,225.0469 220.05,224.7813 Q220.6438,224.5 221.2688,223.9219 L221.2688,226.6406 Z " fill="#000000"/><text fill="#000000" font-family="sans-serif" font-size="12" lengthAdjust="spacing" textLength="49" x="236.7" y="225.1543">Theater</text><line style="stroke:#A80036;stroke-width:1.5;" x1="184.5" x2="307.5" y1="237" y2="237"/><text fill="#000000" font-family="sans-serif" font-size="11" lengthAdjust="spacing" textLength="79" x="189.5" y="251.2104">Moview movie</text><text fill="#000000" font-family="sans-serif" font-size="11" lengthAdjust="spacing" textLength="113" x="189.5" y="264.0151">DateTime startTime</text><text fill="#000000" font-family="sans-serif" font-size="11" lengthAdjust="spacing" textLength="108" x="189.5" y="276.8198">Int numberOfSeats</text><line style="stroke:#A80036;stroke-width:1.5;" x1="184.5" x2="307.5" y1="283.4141" y2="283.4141"/><!--MD5=[95174e42ee347a14b6cb78d6855f19b5]
class Element--><rect codeLine="19" fill="#FEFECE" filter="url(#fa0jo8n3qd9lq)" height="112.0234" id="Element" style="stroke:#A80036;stroke-width:1.5;" width="166" x="493" y="192"/><ellipse cx="546.25" cy="208" fill="#ADD1B2" rx="11" ry="11" style="stroke:#A80036;stroke-width:1.0;"/><path d="M549.2188,213.6406 Q548.6406,213.9375 548,214.0781 Q547.3594,214.2344 546.6563,214.2344 Q544.1563,214.2344 542.8281,212.5938 Q541.5156,210.9375 541.5156,207.8125 Q541.5156,204.6875 542.8281,203.0313 Q544.1563,201.375 546.6563,201.375 Q547.3594,201.375 548,201.5313 Q548.6563,201.6875 549.2188,201.9844 L549.2188,204.7031 Q548.5938,204.125 548,203.8594 Q547.4063,203.5781 546.7813,203.5781 Q545.4375,203.5781 544.75,204.6563 Q544.0625,205.7188 544.0625,207.8125 Q544.0625,209.9063 544.75,210.9844 Q545.4375,212.0469 546.7813,212.0469 Q547.4063,212.0469 548,211.7813 Q548.5938,211.5 549.2188,210.9219 L549.2188,213.6406 Z " fill="#000000"/><text fill="#000000" font-family="sans-serif" font-size="12" lengthAdjust="spacing" textLength="51" x="566.75" y="212.1543">Element</text><line style="stroke:#A80036;stroke-width:1.5;" x1="494" x2="658" y1="224" y2="224"/><text fill="#000000" font-family="sans-serif" font-size="11" lengthAdjust="spacing" textLength="70" x="499" y="238.2104">String name</text><text fill="#000000" font-family="sans-serif" font-size="11" lengthAdjust="spacing" textLength="116" x="499" y="251.0151">AgeRange ageRange</text><text fill="#000000" font-family="sans-serif" font-size="11" lengthAdjust="spacing" textLength="154" x="499" y="263.8198">?MemberShip memberShip</text><text fill="#000000" font-family="sans-serif" font-size="11" lengthAdjust="spacing" textLength="97" x="499" y="276.6245">?Student student</text><text fill="#000000" font-family="sans-serif" font-size="11" lengthAdjust="spacing" textLength="79" x="499" y="289.4292">?Handicapped</text><line style="stroke:#A80036;stroke-width:1.5;" x1="494" x2="658" y1="296.0234" y2="296.0234"/><!--MD5=[76948b3d3a20c49eed790efa463f47b9]
class MemberShip--><rect codeLine="27" fill="#FEFECE" filter="url(#fa0jo8n3qd9lq)" height="60.8047" id="MemberShip" style="stroke:#A80036;stroke-width:1.5;" width="123" x="694.5" y="217.5"/><ellipse cx="715.8" cy="233.5" fill="#ADD1B2" rx="11" ry="11" style="stroke:#A80036;stroke-width:1.0;"/><path d="M718.7688,239.1406 Q718.1906,239.4375 717.55,239.5781 Q716.9094,239.7344 716.2063,239.7344 Q713.7063,239.7344 712.3781,238.0938 Q711.0656,236.4375 711.0656,233.3125 Q711.0656,230.1875 712.3781,228.5313 Q713.7063,226.875 716.2063,226.875 Q716.9094,226.875 717.55,227.0313 Q718.2063,227.1875 718.7688,227.4844 L718.7688,230.2031 Q718.1438,229.625 717.55,229.3594 Q716.9563,229.0781 716.3313,229.0781 Q714.9875,229.0781 714.3,230.1563 Q713.6125,231.2188 713.6125,233.3125 Q713.6125,235.4063 714.3,236.4844 Q714.9875,237.5469 716.3313,237.5469 Q716.9563,237.5469 717.55,237.2813 Q718.1438,237 718.7688,236.4219 L718.7688,239.1406 Z " fill="#000000"/><text fill="#000000" font-family="sans-serif" font-size="12" lengthAdjust="spacing" textLength="77" x="731.2" y="237.6543">MemberShip</text><line style="stroke:#A80036;stroke-width:1.5;" x1="695.5" x2="816.5" y1="249.5" y2="249.5"/><text fill="#000000" font-family="sans-serif" font-size="11" lengthAdjust="spacing" textLength="111" x="700.5" y="263.7104">DateTime expiredAt</text><line style="stroke:#A80036;stroke-width:1.5;" x1="695.5" x2="816.5" y1="270.3047" y2="270.3047"/><!--MD5=[d6181cb537bdc20c0a3007a98a56832d]
class Student--><rect codeLine="31" fill="#FEFECE" filter="url(#fa0jo8n3qd9lq)" height="73.6094" id="Student" style="stroke:#A80036;stroke-width:1.5;" width="83" x="852.5" y="211"/><ellipse cx="867.95" cy="227" fill="#EB937F" rx="11" ry="11" style="stroke:#A80036;stroke-width:1.0;"/><path d="M872.0594,233 L864.3406,233 L864.3406,220.6094 L872.0594,220.6094 L872.0594,222.7656 L866.7938,222.7656 L866.7938,225.4375 L871.5594,225.4375 L871.5594,227.5938 L866.7938,227.5938 L866.7938,230.8438 L872.0594,230.8438 L872.0594,233 Z " fill="#000000"/><text fill="#000000" font-family="sans-serif" font-size="12" lengthAdjust="spacing" textLength="50" x="882.05" y="231.1543">Student</text><line style="stroke:#A80036;stroke-width:1.5;" x1="853.5" x2="934.5" y1="243" y2="243"/><text fill="#000000" font-family="sans-serif" font-size="11" lengthAdjust="spacing" textLength="49" x="858.5" y="257.2104">Colleage</text><text fill="#000000" font-family="sans-serif" font-size="11" lengthAdjust="spacing" textLength="71" x="858.5" y="270.0151">JuniorOrHigh</text><line style="stroke:#A80036;stroke-width:1.5;" x1="853.5" x2="934.5" y1="276.6094" y2="276.6094"/><!--MD5=[e4bc46eee2152ad046c537bbd64ff0d5]
class Handicapped--><rect codeLine="36" fill="#FEFECE" filter="url(#fa0jo8n3qd9lq)" height="73.6094" id="Handicapped" style="stroke:#A80036;stroke-width:1.5;" width="115" x="518.5" y="364"/><ellipse cx="533.5" cy="380" fill="#EB937F" rx="11" ry="11" style="stroke:#A80036;stroke-width:1.0;"/><path d="M537.6094,386 L529.8906,386 L529.8906,373.6094 L537.6094,373.6094 L537.6094,375.7656 L532.3438,375.7656 L532.3438,378.4375 L537.1094,378.4375 L537.1094,380.5938 L532.3438,380.5938 L532.3438,383.8438 L537.6094,383.8438 L537.6094,386 Z " fill="#000000"/><text fill="#000000" font-family="sans-serif" font-size="12" lengthAdjust="spacing" textLength="83" x="547.5" y="384.1543">Handicapped</text><line style="stroke:#A80036;stroke-width:1.5;" x1="519.5" x2="632.5" y1="396" y2="396"/><text fill="#000000" font-family="sans-serif" font-size="11" lengthAdjust="spacing" textLength="47" x="524.5" y="410.2104">Children</text><text fill="#000000" font-family="sans-serif" font-size="11" lengthAdjust="spacing" textLength="52" x="524.5" y="423.0151">GrownUp</text><line style="stroke:#A80036;stroke-width:1.5;" x1="519.5" x2="632.5" y1="429.6094" y2="429.6094"/><!--MD5=[7aeaefaace6435e597dd8fea727c0011]
class AgeRange--><rect codeLine="41" fill="#FEFECE" filter="url(#fa0jo8n3qd9lq)" height="99.2188" id="AgeRange" style="stroke:#A80036;stroke-width:1.5;" width="114" x="344" y="198.5"/><ellipse cx="367.1" cy="214.5" fill="#EB937F" rx="11" ry="11" style="stroke:#A80036;stroke-width:1.0;"/><path d="M371.2094,220.5 L363.4906,220.5 L363.4906,208.1094 L371.2094,208.1094 L371.2094,210.2656 L365.9438,210.2656 L365.9438,212.9375 L370.7094,212.9375 L370.7094,215.0938 L365.9438,215.0938 L365.9438,218.3438 L371.2094,218.3438 L371.2094,220.5 Z " fill="#000000"/><text fill="#000000" font-family="sans-serif" font-size="12" lengthAdjust="spacing" textLength="64" x="382.9" y="218.6543">AgeRange</text><line style="stroke:#A80036;stroke-width:1.5;" x1="345" x2="457" y1="230.5" y2="230.5"/><text fill="#000000" font-family="sans-serif" font-size="11" lengthAdjust="spacing" textLength="45" x="350" y="244.7104">General</text><text fill="#000000" font-family="sans-serif" font-size="11" lengthAdjust="spacing" textLength="37" x="350" y="257.5151">Senior</text><text fill="#000000" font-family="sans-serif" font-size="11" lengthAdjust="spacing" textLength="43" x="350" y="270.3198">Toddler</text><text fill="#000000" font-family="sans-serif" font-size="11" lengthAdjust="spacing" textLength="102" x="350" y="283.1245">ElementarySchool</text><line style="stroke:#A80036;stroke-width:1.5;" x1="345" x2="457" y1="289.7188" y2="289.7188"/><!--MD5=[b3be63f686ea56a43222251ea576b753]
class Plan--><rect codeLine="48" fill="#FEFECE" filter="url(#fa0jo8n3qd9lq)" height="124.8281" id="Plan" style="stroke:#A80036;stroke-width:1.5;" width="108" x="370" y="7"/><ellipse cx="407.05" cy="23" fill="#ADD1B2" rx="11" ry="11" style="stroke:#A80036;stroke-width:1.0;"/><path d="M410.0188,28.6406 Q409.4406,28.9375 408.8,29.0781 Q408.1594,29.2344 407.4563,29.2344 Q404.9563,29.2344 403.6281,27.5938 Q402.3156,25.9375 402.3156,22.8125 Q402.3156,19.6875 403.6281,18.0313 Q404.9563,16.375 407.4563,16.375 Q408.1594,16.375 408.8,16.5313 Q409.4563,16.6875 410.0188,16.9844 L410.0188,19.7031 Q409.3938,19.125 408.8,18.8594 Q408.2063,18.5781 407.5813,18.5781 Q406.2375,18.5781 405.55,19.6563 Q404.8625,20.7188 404.8625,22.8125 Q404.8625,24.9063 405.55,25.9844 Q406.2375,27.0469 407.5813,27.0469 Q408.2063,27.0469 408.8,26.7813 Q409.3938,26.5 410.0188,25.9219 L410.0188,28.6406 Z " fill="#000000"/><text fill="#000000" font-family="sans-serif" font-size="12" lengthAdjust="spacing" textLength="27" x="425.95" y="27.1543">Plan</text><line style="stroke:#A80036;stroke-width:1.5;" x1="371" x2="477" y1="39" y2="39"/><text fill="#000000" font-family="sans-serif" font-size="11" lengthAdjust="spacing" textLength="70" x="376" y="53.2104">String name</text><text fill="#000000" font-family="sans-serif" font-size="11" lengthAdjust="spacing" textLength="46" x="376" y="66.0151">Int price</text><text fill="#000000" font-family="sans-serif" font-size="11" lengthAdjust="spacing" textLength="80" x="376" y="78.8198">Int dayOfWeek</text><text fill="#000000" font-family="sans-serif" font-size="11" lengthAdjust="spacing" textLength="50" x="376" y="91.6245">Bool late</text><text fill="#000000" font-family="sans-serif" font-size="11" lengthAdjust="spacing" textLength="84" x="376" y="104.4292">Bool movieDay</text><text fill="#000000" font-family="sans-serif" font-size="11" lengthAdjust="spacing" textLength="96" x="376" y="117.2339">Element element</text><line style="stroke:#A80036;stroke-width:1.5;" x1="371" x2="477" y1="123.8281" y2="123.8281"/><!--MD5=[2ce0c9fb7f55b1e256ab28a8ea6b25ec]
class Customer--><rect codeLine="57" fill="#FEFECE" filter="url(#fa0jo8n3qd9lq)" height="60.8047" id="Customer" style="stroke:#A80036;stroke-width:1.5;" width="108" x="522" y="39"/><ellipse cx="544.2" cy="55" fill="#ADD1B2" rx="11" ry="11" style="stroke:#A80036;stroke-width:1.0;"/><path d="M547.1688,60.6406 Q546.5906,60.9375 545.95,61.0781 Q545.3094,61.2344 544.6063,61.2344 Q542.1063,61.2344 540.7781,59.5938 Q539.4656,57.9375 539.4656,54.8125 Q539.4656,51.6875 540.7781,50.0313 Q542.1063,48.375 544.6063,48.375 Q545.3094,48.375 545.95,48.5313 Q546.6063,48.6875 547.1688,48.9844 L547.1688,51.7031 Q546.5438,51.125 545.95,50.8594 Q545.3563,50.5781 544.7313,50.5781 Q543.3875,50.5781 542.7,51.6563 Q542.0125,52.7188 542.0125,54.8125 Q542.0125,56.9063 542.7,57.9844 Q543.3875,59.0469 544.7313,59.0469 Q545.3563,59.0469 545.95,58.7813 Q546.5438,58.5 547.1688,57.9219 L547.1688,60.6406 Z " fill="#000000"/><text fill="#000000" font-family="sans-serif" font-size="12" lengthAdjust="spacing" textLength="60" x="559.8" y="59.1543">Customer</text><line style="stroke:#A80036;stroke-width:1.5;" x1="523" x2="629" y1="71" y2="71"/><text fill="#000000" font-family="sans-serif" font-size="11" lengthAdjust="spacing" textLength="96" x="528" y="85.2104">Element element</text><line style="stroke:#A80036;stroke-width:1.5;" x1="523" x2="629" y1="91.8047" y2="91.8047"/><!--MD5=[40e044ec38a6f42acb0ff0b6b567241d]
link Ticket to Plan--><path codeLine="61" d="M315.7188,69.5 C333.7656,69.5 351.8125,69.5 369.8594,69.5 " fill="none" id="Ticket-Plan" style="stroke:#A80036;stroke-width:1.0;"/><!--MD5=[689ce0c5eb806654abc850cac13b65b6]
link Movie to Ticket--><path codeLine="62" d="M161.2656,69.5 C172.9841,69.5 184.7025,69.5 196.421,69.5 " fill="none" id="Movie-Ticket" style="stroke:#A80036;stroke-width:1.0;"/><!--MD5=[2a9c6ebfd405fca1d0a078464a031413]
link Ticket to Theater--><path codeLine="63" d="M253.2144,119.2222 C251.7061,146.1463 249.8608,179.0848 248.414,204.9093 " fill="none" id="Ticket-Theater" style="stroke:#A80036;stroke-width:1.0;"/><!--MD5=[f148b31edd59a7fe6bcb5e73785d60c1]
link Plan to Element--><path codeLine="64" d="M477.3758,132.1814 C493.8853,151.5693 511.9621,172.7976 528.0786,191.7239 " fill="none" id="Plan-Element" style="stroke:#A80036;stroke-width:1.0;"/><!--MD5=[bc56759dcce675cd09aeaaf62831dbc8]
link Element to MemberShip--><path codeLine="65" d="M659.3203,248 C671.0276,248 682.7349,248 694.4422,248 " fill="none" id="Element-MemberShip" style="stroke:#A80036;stroke-width:1.0;"/><!--MD5=[ee13444637fbe319adb63f467298dc64]
link AgeRange to Element--><path codeLine="66" d="M458.0801,248 C469.5957,248 481.1113,248 492.6269,248 " fill="none" id="AgeRange-Element" style="stroke:#A80036;stroke-width:1.0;"/><!--MD5=[c191eb20233367e4f7eaa5cf758664d1]
link Element to Student--><path codeLine="67" d="M638.0257,191.9607 C655.1561,179.7085 674.5534,168.4752 694.5,162 C746.4955,145.1208 767.6268,139.6145 817.5,162 C839.9236,172.0648 858.4596,192.3111 871.6672,210.6316 " fill="none" id="Element-Student" style="stroke:#A80036;stroke-width:1.0;"/><!--MD5=[c378b79806346001de911263e11d925a]
link Element to Handicapped--><path codeLine="68" d="M576,304.1028 C576,324.0596 576,346.0143 576,363.9721 " fill="none" id="Element-Handicapped" style="stroke:#A80036;stroke-width:1.0;"/><!--MD5=[cb8c54731a3750deb3dbf693c3d2d37b]
link Customer to Element--><path codeLine="69" d="M576,100.1852 C576,125.3044 576,161.5048 576,191.7933 " fill="none" id="Customer-Element" style="stroke:#A80036;stroke-width:1.0;"/><!--MD5=[7da019feb5b73abcf3230eccb04fd702]
@startuml
class Ticket {
    Plan plan
    Movie movie
    Theater theater
    DateTime useTime
}

class Movie {
    String title
    DateTime screeningTime
}

class Theater {
    Moview movie
    DateTime startTime
    Int numberOfSeats
}

class Element {
    String name
    AgeRange ageRange
    ?MemberShip memberShip
    ?Student student
    ?Handicapped
}

class MemberShip {
    DateTime expiredAt
}

enum Student {
    Colleage
    JuniorOrHigh
}

enum Handicapped {
    Children
    GrownUp
}

enum AgeRange {
    General
    Senior
    Toddler
    ElementarySchool
}

class Plan {
    String name
    Int price
    Int dayOfWeek
    Bool late
    Bool movieDay
    Element element
}

class Customer {
    Element element
}

Ticket -right- Plan
Ticket -left- Movie
Ticket -down- Theater
Plan - - Element
Element - MemberShip
Element -left- AgeRange
Element -right- Student
Element -down- Handicapped
Customer - - Element
@enduml

PlantUML version 1.2021.01(Tue Feb 02 07:55:08 UTC 2021)
(GPL source distribution)
Java Runtime: OpenJDK Runtime Environment
JVM: OpenJDK 64-Bit Server VM
Default Encoding: UTF-8
Language: en
Country: null
--></g></svg>