<?xml version="1.0" encoding="UTF-8" standalone="no"?><svg xmlns="http://www.w3.org/2000/svg" xmlns:xlink="http://www.w3.org/1999/xlink" contentScriptType="application/ecmascript" contentStyleType="text/css" height="553px" preserveAspectRatio="none" style="width:1455px;height:553px;" version="1.1" viewBox="0 0 1455 553" width="1455px" zoomAndPan="magnify"><defs><filter height="300%" id="f11putwzhtrc0" width="300%" x="-1" y="-1"><feGaussianBlur result="blurOut" stdDeviation="2.0"/><feColorMatrix in="blurOut" result="blurOut2" type="matrix" values="0 0 0 0 0 0 0 0 0 0 0 0 0 0 0 0 0 0 .4 0"/><feOffset dx="4.0" dy="4.0" in="blurOut2" result="blurOut3"/><feBlend in="SourceGraphic" in2="blurOut3" mode="normal"/></filter></defs><g><!--MD5=[ac6bea31e13c94c7baa9ad18feb7405e]
class Ticket--><rect codeLine="1" fill="#FEFECE" filter="url(#f11putwzhtrc0)" height="99.2188" id="Ticket" style="stroke:#A80036;stroke-width:1.5;" width="119" x="196.5" y="20"/><ellipse cx="234" cy="36" fill="#ADD1B2" rx="11" ry="11" style="stroke:#A80036;stroke-width:1.0;"/><path d="M236.9688,41.6406 Q236.3906,41.9375 235.75,42.0781 Q235.1094,42.2344 234.4063,42.2344 Q231.9063,42.2344 230.5781,40.5938 Q229.2656,38.9375 229.2656,35.8125 Q229.2656,32.6875 230.5781,31.0313 Q231.9063,29.375 234.4063,29.375 Q235.1094,29.375 235.75,29.5313 Q236.4063,29.6875 236.9688,29.9844 L236.9688,32.7031 Q236.3438,32.125 235.75,31.8594 Q235.1563,31.5781 234.5313,31.5781 Q233.1875,31.5781 232.5,32.6563 Q231.8125,33.7188 231.8125,35.8125 Q231.8125,37.9063 232.5,38.9844 Q233.1875,40.0469 234.5313,40.0469 Q235.1563,40.0469 235.75,39.7813 Q236.3438,39.5 236.9688,38.9219 L236.9688,41.6406 Z " fill="#000000"/><text fill="#000000" font-family="sans-serif" font-size="12" lengthAdjust="spacing" textLength="37" x="253" y="40.1543">Ticket</text><line style="stroke:#A80036;stroke-width:1.5;" x1="197.5" x2="314.5" y1="52" y2="52"/><text fill="#000000" font-family="sans-serif" font-size="11" lengthAdjust="spacing" textLength="52" x="202.5" y="66.2104">Plan plan</text><text fill="#000000" font-family="sans-serif" font-size="11" lengthAdjust="spacing" textLength="70" x="202.5" y="79.0151">Movie movie</text><text fill="#000000" font-family="sans-serif" font-size="11" lengthAdjust="spacing" textLength="89" x="202.5" y="91.8198">Theater theater</text><text fill="#000000" font-family="sans-serif" font-size="11" lengthAdjust="spacing" textLength="107" x="202.5" y="104.6245">DateTime useTime</text><line style="stroke:#A80036;stroke-width:1.5;" x1="197.5" x2="314.5" y1="111.2188" y2="111.2188"/><!--MD5=[e69084ab16b022bdbef99762ea85e9d6]
class Movie--><rect codeLine="8" fill="#FEFECE" filter="url(#f11putwzhtrc0)" height="73.6094" id="Movie" style="stroke:#A80036;stroke-width:1.5;" width="154" x="7" y="32.5"/><ellipse cx="62.25" cy="48.5" fill="#ADD1B2" rx="11" ry="11" style="stroke:#A80036;stroke-width:1.0;"/><path d="M65.2188,54.1406 Q64.6406,54.4375 64,54.5781 Q63.3594,54.7344 62.6563,54.7344 Q60.1563,54.7344 58.8281,53.0938 Q57.5156,51.4375 57.5156,48.3125 Q57.5156,45.1875 58.8281,43.5313 Q60.1563,41.875 62.6563,41.875 Q63.3594,41.875 64,42.0313 Q64.6563,42.1875 65.2188,42.4844 L65.2188,45.2031 Q64.5938,44.625 64,44.3594 Q63.4063,44.0781 62.7813,44.0781 Q61.4375,44.0781 60.75,45.1563 Q60.0625,46.2188 60.0625,48.3125 Q60.0625,50.4063 60.75,51.4844 Q61.4375,52.5469 62.7813,52.5469 Q63.4063,52.5469 64,52.2813 Q64.5938,52 65.2188,51.4219 L65.2188,54.1406 Z " fill="#000000"/><text fill="#000000" font-family="sans-serif" font-size="12" lengthAdjust="spacing" textLength="35" x="82.75" y="52.6543">Movie</text><line style="stroke:#A80036;stroke-width:1.5;" x1="8" x2="160" y1="64.5" y2="64.5"/><text fill="#000000" font-family="sans-serif" font-size="11" lengthAdjust="spacing" textLength="59" x="13" y="78.7104">String title</text><text fill="#000000" font-family="sans-serif" font-size="11" lengthAdjust="spacing" textLength="142" x="13" y="91.5151">DateTime screeningTime</text><line style="stroke:#A80036;stroke-width:1.5;" x1="8" x2="160" y1="98.1094" y2="98.1094"/><!--MD5=[6fa3e4350d44af662413ad1d54c020bd]
class Theater--><rect codeLine="13" fill="#FEFECE" filter="url(#f11putwzhtrc0)" height="86.4141" id="Theater" style="stroke:#A80036;stroke-width:1.5;" width="125" x="176.5" y="256"/><ellipse cx="211.3" cy="272" fill="#ADD1B2" rx="11" ry="11" style="stroke:#A80036;stroke-width:1.0;"/><path d="M214.2688,277.6406 Q213.6906,277.9375 213.05,278.0781 Q212.4094,278.2344 211.7063,278.2344 Q209.2063,278.2344 207.8781,276.5938 Q206.5656,274.9375 206.5656,271.8125 Q206.5656,268.6875 207.8781,267.0313 Q209.2063,265.375 211.7063,265.375 Q212.4094,265.375 213.05,265.5313 Q213.7063,265.6875 214.2688,265.9844 L214.2688,268.7031 Q213.6438,268.125 213.05,267.8594 Q212.4563,267.5781 211.8313,267.5781 Q210.4875,267.5781 209.8,268.6563 Q209.1125,269.7188 209.1125,271.8125 Q209.1125,273.9063 209.8,274.9844 Q210.4875,276.0469 211.8313,276.0469 Q212.4563,276.0469 213.05,275.7813 Q213.6438,275.5 214.2688,274.9219 L214.2688,277.6406 Z " fill="#000000"/><text fill="#000000" font-family="sans-serif" font-size="12" lengthAdjust="spacing" textLength="49" x="229.7" y="276.1543">Theater</text><line style="stroke:#A80036;stroke-width:1.5;" x1="177.5" x2="300.5" y1="288" y2="288"/><text fill="#000000" font-family="sans-serif" font-size="11" lengthAdjust="spacing" textLength="79" x="182.5" y="302.2104">Moview movie</text><text fill="#000000" font-family="sans-serif" font-size="11" lengthAdjust="spacing" textLength="113" x="182.5" y="315.0151">DateTime startTime</text><text fill="#000000" font-family="sans-serif" font-size="11" lengthAdjust="spacing" textLength="108" x="182.5" y="327.8198">Int numberOfSeats</text><line style="stroke:#A80036;stroke-width:1.5;" x1="177.5" x2="300.5" y1="334.4141" y2="334.4141"/><!--MD5=[95174e42ee347a14b6cb78d6855f19b5]
class Element--><rect codeLine="19" fill="#FEFECE" filter="url(#f11putwzhtrc0)" height="214.4609" id="Element" style="stroke:#A80036;stroke-width:1.5;" width="245" x="860.5" y="192"/><ellipse cx="953.25" cy="208" fill="#ADD1B2" rx="11" ry="11" style="stroke:#A80036;stroke-width:1.0;"/><path d="M956.2188,213.6406 Q955.6406,213.9375 955,214.0781 Q954.3594,214.2344 953.6563,214.2344 Q951.1563,214.2344 949.8281,212.5938 Q948.5156,210.9375 948.5156,207.8125 Q948.5156,204.6875 949.8281,203.0313 Q951.1563,201.375 953.6563,201.375 Q954.3594,201.375 955,201.5313 Q955.6563,201.6875 956.2188,201.9844 L956.2188,204.7031 Q955.5938,204.125 955,203.8594 Q954.4063,203.5781 953.7813,203.5781 Q952.4375,203.5781 951.75,204.6563 Q951.0625,205.7188 951.0625,207.8125 Q951.0625,209.9063 951.75,210.9844 Q952.4375,212.0469 953.7813,212.0469 Q954.4063,212.0469 955,211.7813 Q955.5938,211.5 956.2188,210.9219 L956.2188,213.6406 Z " fill="#000000"/><text fill="#000000" font-family="sans-serif" font-size="12" lengthAdjust="spacing" textLength="51" x="973.75" y="212.1543">Element</text><line style="stroke:#A80036;stroke-width:1.5;" x1="861.5" x2="1104.5" y1="224" y2="224"/><text fill="#000000" font-family="sans-serif" font-size="11" lengthAdjust="spacing" textLength="122" x="866.5" y="238.2104">?AgeRange ageRange</text><text fill="#000000" font-family="sans-serif" font-size="11" lengthAdjust="spacing" textLength="154" x="866.5" y="251.0151">?MemberShip memberShip</text><text fill="#000000" font-family="sans-serif" font-size="11" lengthAdjust="spacing" textLength="97" x="866.5" y="263.8198">?Student student</text><text fill="#000000" font-family="sans-serif" font-size="11" lengthAdjust="spacing" textLength="79" x="866.5" y="276.6245">?Handicapped</text><line style="stroke:#A80036;stroke-width:1.5;" x1="861.5" x2="1104.5" y1="283.2188" y2="283.2188"/><text fill="#000000" font-family="sans-serif" font-size="11" lengthAdjust="spacing" textLength="152" x="866.5" y="297.4292">Element generateCinema()</text><text fill="#000000" font-family="sans-serif" font-size="11" lengthAdjust="spacing" textLength="189" x="866.5" y="310.2339">Element generateCinemaSenior()</text><text fill="#000000" font-family="sans-serif" font-size="11" lengthAdjust="spacing" textLength="154" x="866.5" y="323.0386">Element generateGeneral()</text><text fill="#000000" font-family="sans-serif" font-size="11" lengthAdjust="spacing" textLength="146" x="866.5" y="335.8433">Element generateSenior()</text><text fill="#000000" font-family="sans-serif" font-size="11" lengthAdjust="spacing" textLength="158" x="866.5" y="348.6479">Element generateColleage()</text><text fill="#000000" font-family="sans-serif" font-size="11" lengthAdjust="spacing" textLength="180" x="866.5" y="361.4526">Element generateJuniorOrHigh()</text><text fill="#000000" font-family="sans-serif" font-size="11" lengthAdjust="spacing" textLength="221" x="866.5" y="374.2573">Element generateToddleOrElemenary()</text><text fill="#000000" font-family="sans-serif" font-size="11" lengthAdjust="spacing" textLength="229" x="866.5" y="387.062">Element generateHandicappedChildren()</text><text fill="#000000" font-family="sans-serif" font-size="11" lengthAdjust="spacing" textLength="233" x="866.5" y="399.8667">Element generateHandicappedGrownup()</text><!--MD5=[76948b3d3a20c49eed790efa463f47b9]
class MemberShip--><rect codeLine="36" fill="#FEFECE" filter="url(#f11putwzhtrc0)" height="60.8047" id="MemberShip" style="stroke:#A80036;stroke-width:1.5;" width="123" x="1318.5" y="268.5"/><ellipse cx="1339.8" cy="284.5" fill="#ADD1B2" rx="11" ry="11" style="stroke:#A80036;stroke-width:1.0;"/><path d="M1342.7688,290.1406 Q1342.1906,290.4375 1341.55,290.5781 Q1340.9094,290.7344 1340.2063,290.7344 Q1337.7063,290.7344 1336.3781,289.0938 Q1335.0656,287.4375 1335.0656,284.3125 Q1335.0656,281.1875 1336.3781,279.5313 Q1337.7063,277.875 1340.2063,277.875 Q1340.9094,277.875 1341.55,278.0313 Q1342.2063,278.1875 1342.7688,278.4844 L1342.7688,281.2031 Q1342.1438,280.625 1341.55,280.3594 Q1340.9563,280.0781 1340.3313,280.0781 Q1338.9875,280.0781 1338.3,281.1563 Q1337.6125,282.2188 1337.6125,284.3125 Q1337.6125,286.4063 1338.3,287.4844 Q1338.9875,288.5469 1340.3313,288.5469 Q1340.9563,288.5469 1341.55,288.2813 Q1342.1438,288 1342.7688,287.4219 L1342.7688,290.1406 Z " fill="#000000"/><text fill="#000000" font-family="sans-serif" font-size="12" lengthAdjust="spacing" textLength="77" x="1355.2" y="288.6543">MemberShip</text><line style="stroke:#A80036;stroke-width:1.5;" x1="1319.5" x2="1440.5" y1="300.5" y2="300.5"/><text fill="#000000" font-family="sans-serif" font-size="11" lengthAdjust="spacing" textLength="111" x="1324.5" y="314.7104">DateTime expiredAt</text><line style="stroke:#A80036;stroke-width:1.5;" x1="1319.5" x2="1440.5" y1="321.3047" y2="321.3047"/><!--MD5=[d6181cb537bdc20c0a3007a98a56832d]
class Student--><rect codeLine="40" fill="#FEFECE" filter="url(#f11putwzhtrc0)" height="73.6094" id="Student" style="stroke:#A80036;stroke-width:1.5;" width="142" x="1141" y="262"/><ellipse cx="1183" cy="278" fill="#EB937F" rx="11" ry="11" style="stroke:#A80036;stroke-width:1.0;"/><path d="M1187.1094,284 L1179.3906,284 L1179.3906,271.6094 L1187.1094,271.6094 L1187.1094,273.7656 L1181.8438,273.7656 L1181.8438,276.4375 L1186.6094,276.4375 L1186.6094,278.5938 L1181.8438,278.5938 L1181.8438,281.8438 L1187.1094,281.8438 L1187.1094,284 Z " fill="#000000"/><text fill="#000000" font-family="sans-serif" font-size="12" lengthAdjust="spacing" textLength="50" x="1203" y="282.1543">Student</text><line style="stroke:#A80036;stroke-width:1.5;" x1="1142" x2="1282" y1="294" y2="294"/><text fill="#000000" font-family="sans-serif" font-size="11" lengthAdjust="spacing" textLength="130" x="1147" y="308.2104">Colleage 学生（大・専）</text><text fill="#000000" font-family="sans-serif" font-size="11" lengthAdjust="spacing" textLength="130" x="1147" y="321.0151">JuniorOrHigh 中・高校生</text><line style="stroke:#A80036;stroke-width:1.5;" x1="1142" x2="1282" y1="327.6094" y2="327.6094"/><!--MD5=[e4bc46eee2152ad046c537bbd64ff0d5]
class Handicapped--><rect codeLine="45" fill="#FEFECE" filter="url(#f11putwzhtrc0)" height="73.6094" id="Handicapped" style="stroke:#A80036;stroke-width:1.5;" width="178" x="894" y="466"/><ellipse cx="937.35" cy="482" fill="#EB937F" rx="11" ry="11" style="stroke:#A80036;stroke-width:1.0;"/><path d="M941.4594,488 L933.7406,488 L933.7406,475.6094 L941.4594,475.6094 L941.4594,477.7656 L936.1938,477.7656 L936.1938,480.4375 L940.9594,480.4375 L940.9594,482.5938 L936.1938,482.5938 L936.1938,485.8438 L941.4594,485.8438 L941.4594,488 Z " fill="#000000"/><text fill="#000000" font-family="sans-serif" font-size="12" lengthAdjust="spacing" textLength="83" x="957.65" y="486.1543">Handicapped</text><line style="stroke:#A80036;stroke-width:1.5;" x1="895" x2="1071" y1="498" y2="498"/><text fill="#000000" font-family="sans-serif" font-size="11" lengthAdjust="spacing" textLength="161" x="900" y="512.2104">Children 障がい者（学生以上）</text><text fill="#000000" font-family="sans-serif" font-size="11" lengthAdjust="spacing" textLength="166" x="900" y="525.0151">GrownUp 障がい者（高校以下）</text><line style="stroke:#A80036;stroke-width:1.5;" x1="895" x2="1071" y1="531.6094" y2="531.6094"/><!--MD5=[7aeaefaace6435e597dd8fea727c0011]
class AgeRange--><rect codeLine="50" fill="#FEFECE" filter="url(#f11putwzhtrc0)" height="73.6094" id="AgeRange" style="stroke:#A80036;stroke-width:1.5;" width="284" x="541" y="262"/><ellipse cx="646.75" cy="278" fill="#EB937F" rx="11" ry="11" style="stroke:#A80036;stroke-width:1.0;"/><path d="M650.8594,284 L643.1406,284 L643.1406,271.6094 L650.8594,271.6094 L650.8594,273.7656 L645.5938,273.7656 L645.5938,276.4375 L650.3594,276.4375 L650.3594,278.5938 L645.5938,278.5938 L645.5938,281.8438 L650.8594,281.8438 L650.8594,284 Z " fill="#000000"/><text fill="#000000" font-family="sans-serif" font-size="12" lengthAdjust="spacing" textLength="64" x="667.25" y="282.1543">AgeRange</text><line style="stroke:#A80036;stroke-width:1.5;" x1="542" x2="824" y1="294" y2="294"/><text fill="#000000" font-family="sans-serif" font-size="11" lengthAdjust="spacing" textLength="74" x="547" y="308.2104">Senior シニア</text><text fill="#000000" font-family="sans-serif" font-size="11" lengthAdjust="spacing" textLength="272" x="547" y="321.0151">TODDLERORELEMENTARY 幼児（3才以上）・小学生</text><line style="stroke:#A80036;stroke-width:1.5;" x1="542" x2="824" y1="327.6094" y2="327.6094"/><!--MD5=[f0f9cc12c6b016b91365a2a655004150]
class PlanName--><rect codeLine="55" fill="#FEFECE" filter="url(#f11putwzhtrc0)" height="163.2422" id="PlanName" style="stroke:#A80036;stroke-width:1.5;" width="169" x="336.5" y="217.5"/><ellipse cx="385.25" cy="233.5" fill="#EB937F" rx="11" ry="11" style="stroke:#A80036;stroke-width:1.0;"/><path d="M389.3594,239.5 L381.6406,239.5 L381.6406,227.1094 L389.3594,227.1094 L389.3594,229.2656 L384.0938,229.2656 L384.0938,231.9375 L388.8594,231.9375 L388.8594,234.0938 L384.0938,234.0938 L384.0938,237.3438 L389.3594,237.3438 L389.3594,239.5 Z " fill="#000000"/><text fill="#000000" font-family="sans-serif" font-size="12" lengthAdjust="spacing" textLength="63" x="405.75" y="237.6543">PlanName</text><line style="stroke:#A80036;stroke-width:1.5;" x1="337.5" x2="504.5" y1="249.5" y2="249.5"/><text fill="#000000" font-family="sans-serif" font-size="11" lengthAdjust="spacing" textLength="88" x="342.5" y="263.7104">シネマシティズン</text><text fill="#000000" font-family="sans-serif" font-size="11" lengthAdjust="spacing" textLength="157" x="342.5" y="276.5151">シネマシティズン（60才以上）</text><text fill="#000000" font-family="sans-serif" font-size="11" lengthAdjust="spacing" textLength="22" x="342.5" y="289.3198">一般</text><text fill="#000000" font-family="sans-serif" font-size="11" lengthAdjust="spacing" textLength="102" x="342.5" y="302.1245">シニア（70才以上）</text><text fill="#000000" font-family="sans-serif" font-size="11" lengthAdjust="spacing" textLength="77" x="342.5" y="314.9292">学生（大・専）</text><text fill="#000000" font-family="sans-serif" font-size="11" lengthAdjust="spacing" textLength="55" x="342.5" y="327.7339">中・高校生</text><text fill="#000000" font-family="sans-serif" font-size="11" lengthAdjust="spacing" textLength="128" x="342.5" y="340.5386">幼児（3才以上）・小学生</text><text fill="#000000" font-family="sans-serif" font-size="11" lengthAdjust="spacing" textLength="110" x="342.5" y="353.3433">障がい者（学生以上）</text><text fill="#000000" font-family="sans-serif" font-size="11" lengthAdjust="spacing" textLength="110" x="342.5" y="366.1479">障がい者（高校以下）</text><line style="stroke:#A80036;stroke-width:1.5;" x1="337.5" x2="504.5" y1="372.7422" y2="372.7422"/><!--MD5=[b3be63f686ea56a43222251ea576b753]
class Plan--><rect codeLine="67" fill="#FEFECE" filter="url(#f11putwzhtrc0)" height="124.8281" id="Plan" style="stroke:#A80036;stroke-width:1.5;" width="108" x="367" y="7"/><ellipse cx="404.05" cy="23" fill="#ADD1B2" rx="11" ry="11" style="stroke:#A80036;stroke-width:1.0;"/><path d="M407.0188,28.6406 Q406.4406,28.9375 405.8,29.0781 Q405.1594,29.2344 404.4563,29.2344 Q401.9563,29.2344 400.6281,27.5938 Q399.3156,25.9375 399.3156,22.8125 Q399.3156,19.6875 400.6281,18.0313 Q401.9563,16.375 404.4563,16.375 Q405.1594,16.375 405.8,16.5313 Q406.4563,16.6875 407.0188,16.9844 L407.0188,19.7031 Q406.3938,19.125 405.8,18.8594 Q405.2063,18.5781 404.5813,18.5781 Q403.2375,18.5781 402.55,19.6563 Q401.8625,20.7188 401.8625,22.8125 Q401.8625,24.9063 402.55,25.9844 Q403.2375,27.0469 404.5813,27.0469 Q405.2063,27.0469 405.8,26.7813 Q406.3938,26.5 407.0188,25.9219 L407.0188,28.6406 Z " fill="#000000"/><text fill="#000000" font-family="sans-serif" font-size="12" lengthAdjust="spacing" textLength="27" x="422.95" y="27.1543">Plan</text><line style="stroke:#A80036;stroke-width:1.5;" x1="368" x2="474" y1="39" y2="39"/><text fill="#000000" font-family="sans-serif" font-size="11" lengthAdjust="spacing" textLength="93" x="373" y="53.2104">PlanName name</text><text fill="#000000" font-family="sans-serif" font-size="11" lengthAdjust="spacing" textLength="46" x="373" y="66.0151">Int price</text><text fill="#000000" font-family="sans-serif" font-size="11" lengthAdjust="spacing" textLength="80" x="373" y="78.8198">Int dayOfWeek</text><text fill="#000000" font-family="sans-serif" font-size="11" lengthAdjust="spacing" textLength="50" x="373" y="91.6245">Bool late</text><text fill="#000000" font-family="sans-serif" font-size="11" lengthAdjust="spacing" textLength="84" x="373" y="104.4292">Bool movieDay</text><text fill="#000000" font-family="sans-serif" font-size="11" lengthAdjust="spacing" textLength="96" x="373" y="117.2339">Element element</text><line style="stroke:#A80036;stroke-width:1.5;" x1="368" x2="474" y1="123.8281" y2="123.8281"/><!--MD5=[2ce0c9fb7f55b1e256ab28a8ea6b25ec]
class Customer--><rect codeLine="76" fill="#FEFECE" filter="url(#f11putwzhtrc0)" height="60.8047" id="Customer" style="stroke:#A80036;stroke-width:1.5;" width="108" x="929" y="39"/><ellipse cx="951.2" cy="55" fill="#ADD1B2" rx="11" ry="11" style="stroke:#A80036;stroke-width:1.0;"/><path d="M954.1688,60.6406 Q953.5906,60.9375 952.95,61.0781 Q952.3094,61.2344 951.6063,61.2344 Q949.1063,61.2344 947.7781,59.5938 Q946.4656,57.9375 946.4656,54.8125 Q946.4656,51.6875 947.7781,50.0313 Q949.1063,48.375 951.6063,48.375 Q952.3094,48.375 952.95,48.5313 Q953.6063,48.6875 954.1688,48.9844 L954.1688,51.7031 Q953.5438,51.125 952.95,50.8594 Q952.3563,50.5781 951.7313,50.5781 Q950.3875,50.5781 949.7,51.6563 Q949.0125,52.7188 949.0125,54.8125 Q949.0125,56.9063 949.7,57.9844 Q950.3875,59.0469 951.7313,59.0469 Q952.3563,59.0469 952.95,58.7813 Q953.5438,58.5 954.1688,57.9219 L954.1688,60.6406 Z " fill="#000000"/><text fill="#000000" font-family="sans-serif" font-size="12" lengthAdjust="spacing" textLength="60" x="966.8" y="59.1543">Customer</text><line style="stroke:#A80036;stroke-width:1.5;" x1="930" x2="1036" y1="71" y2="71"/><text fill="#000000" font-family="sans-serif" font-size="11" lengthAdjust="spacing" textLength="96" x="935" y="85.2104">Element element</text><line style="stroke:#A80036;stroke-width:1.5;" x1="930" x2="1036" y1="91.8047" y2="91.8047"/><!--MD5=[40e044ec38a6f42acb0ff0b6b567241d]
link Ticket to Plan--><path codeLine="80" d="M315.6191,69.5 C332.6338,69.5 349.6484,69.5 366.663,69.5 " fill="none" id="Ticket-Plan" style="stroke:#A80036;stroke-width:1.0;"/><!--MD5=[689ce0c5eb806654abc850cac13b65b6]
link Movie to Ticket--><path codeLine="81" d="M161.2656,69.5 C172.9841,69.5 184.7025,69.5 196.421,69.5 " fill="none" id="Movie-Ticket" style="stroke:#A80036;stroke-width:1.0;"/><!--MD5=[2a9c6ebfd405fca1d0a078464a031413]
link Ticket to Theater--><path codeLine="82" d="M252.3322,119.0155 C249.3161,159.7327 245.0845,216.859 242.2031,255.7575 " fill="none" id="Ticket-Theater" style="stroke:#A80036;stroke-width:1.0;"/><!--MD5=[f148b31edd59a7fe6bcb5e73785d60c1]
link Plan to Element--><path codeLine="83" d="M475.329,78.6033 C558.053,93.907 719.0569,129.4226 843,192 C848.7347,194.8954 854.4707,198.0358 860.1691,201.3615 " fill="none" id="Plan-Element" style="stroke:#A80036;stroke-width:1.0;"/><!--MD5=[bc56759dcce675cd09aeaaf62831dbc8]
link Element to MemberShip--><path codeLine="84" d="M1087.1128,191.8108 C1104.0898,179.6592 1122.4116,169.1062 1141.5,162 C1200.6455,139.9813 1227.4791,132.9368 1283.5,162 C1326.3685,184.2399 1354.2174,235.242 1368.5002,268.354 " fill="none" id="Element-MemberShip" style="stroke:#A80036;stroke-width:1.0;"/><!--MD5=[ee13444637fbe319adb63f467298dc64]
link AgeRange to Element--><path codeLine="85" d="M825.0898,299 C836.8097,299 848.5296,299 860.2495,299 " fill="none" id="AgeRange-Element" style="stroke:#A80036;stroke-width:1.0;"/><!--MD5=[c191eb20233367e4f7eaa5cf758664d1]
link Element to Student--><path codeLine="86" d="M1105.5508,299 C1117.3323,299 1129.1138,299 1140.8952,299 " fill="none" id="Element-Student" style="stroke:#A80036;stroke-width:1.0;"/><!--MD5=[c378b79806346001de911263e11d925a]
link Element to Handicapped--><path codeLine="87" d="M983,406.0782 C983,427.6261 983,448.871 983,465.9537 " fill="none" id="Element-Handicapped" style="stroke:#A80036;stroke-width:1.0;"/><!--MD5=[70cba8bbcd9492f220b8bba8dce4a59f]
link Plan to PlanName--><path codeLine="88" d="M421,132.2119 C421,158.4897 421,189.3867 421,217.4003 " fill="none" id="Plan-PlanName" style="stroke:#A80036;stroke-width:1.0;"/><!--MD5=[cb8c54731a3750deb3dbf693c3d2d37b]
link Customer to Element--><path codeLine="89" d="M983,100.4514 C983,124.1875 983,158.4417 983,191.8354 " fill="none" id="Customer-Element" style="stroke:#A80036;stroke-width:1.0;"/><!--MD5=[aca0ded532e997cea2cd897750bbb12e]
@startuml
class Ticket {
    Plan plan
    Movie movie
    Theater theater
    DateTime useTime
}

class Movie {
    String title
    DateTime screeningTime
}

class Theater {
    Moview movie
    DateTime startTime
    Int numberOfSeats
}

class Element {
    ?AgeRange ageRange
    ?MemberShip memberShip
    ?Student student
    ?Handicapped

    Element generateCinema()
    Element generateCinemaSenior()
    Element generateGeneral()
    Element generateSenior()
    Element generateColleage()
    Element generateJuniorOrHigh()
    Element generateToddleOrElemenary()
    Element generateHandicappedChildren()
    Element generateHandicappedGrownup()
}

class MemberShip {
    DateTime expiredAt
}

enum Student {
    Colleage 学生（大・専）
    JuniorOrHigh 中・高校生
}

enum Handicapped {
    Children 障がい者（学生以上）
    GrownUp 障がい者（高校以下）
}

enum AgeRange {
    Senior シニア
    TODDLERORELEMENTARY 幼児（3才以上）・小学生
}

enum PlanName {
    シネマシティズン
    シネマシティズン（60才以上）
    一般
    シニア（70才以上）
    学生（大・専）
    中・高校生
    幼児（3才以上）・小学生
    障がい者（学生以上）
    障がい者（高校以下）
}

class Plan {
    PlanName name
    Int price
    Int dayOfWeek
    Bool late
    Bool movieDay
    Element element
}

class Customer {
    Element element
}

Ticket -right- Plan
Ticket -left- Movie
Ticket -down- Theater
Plan - - Element
Element - MemberShip
Element -left- AgeRange
Element -right- Student
Element -down- Handicapped
Plan - - PlanName
Customer - - Element
@enduml

PlantUML version 1.2021.01(Tue Feb 02 07:55:08 UTC 2021)
(GPL source distribution)
Java Runtime: OpenJDK Runtime Environment
JVM: OpenJDK 64-Bit Server VM
Default Encoding: UTF-8
Language: en
Country: null
--></g></svg>