<?xml version="1.0" encoding="UTF-8" standalone="no"?><svg xmlns="http://www.w3.org/2000/svg" xmlns:xlink="http://www.w3.org/1999/xlink" contentScriptType="application/ecmascript" contentStyleType="text/css" height="502px" preserveAspectRatio="none" style="width:1375px;height:502px;" version="1.1" viewBox="0 0 1375 502" width="1375px" zoomAndPan="magnify"><defs><filter height="300%" id="f1fi22eynh4a0k" width="300%" x="-1" y="-1"><feGaussianBlur result="blurOut" stdDeviation="2.0"/><feColorMatrix in="blurOut" result="blurOut2" type="matrix" values="0 0 0 0 0 0 0 0 0 0 0 0 0 0 0 0 0 0 .4 0"/><feOffset dx="4.0" dy="4.0" in="blurOut2" result="blurOut3"/><feBlend in="SourceGraphic" in2="blurOut3" mode="normal"/></filter></defs><g><!--MD5=[ac6bea31e13c94c7baa9ad18feb7405e]
class Ticket--><rect codeLine="1" fill="#FEFECE" filter="url(#f1fi22eynh4a0k)" height="99.2188" id="Ticket" style="stroke:#A80036;stroke-width:1.5;" width="119" x="196.5" y="20"/><ellipse cx="234" cy="36" fill="#ADD1B2" rx="11" ry="11" style="stroke:#A80036;stroke-width:1.0;"/><path d="M236.9688,41.6406 Q236.3906,41.9375 235.75,42.0781 Q235.1094,42.2344 234.4063,42.2344 Q231.9063,42.2344 230.5781,40.5938 Q229.2656,38.9375 229.2656,35.8125 Q229.2656,32.6875 230.5781,31.0313 Q231.9063,29.375 234.4063,29.375 Q235.1094,29.375 235.75,29.5313 Q236.4063,29.6875 236.9688,29.9844 L236.9688,32.7031 Q236.3438,32.125 235.75,31.8594 Q235.1563,31.5781 234.5313,31.5781 Q233.1875,31.5781 232.5,32.6563 Q231.8125,33.7188 231.8125,35.8125 Q231.8125,37.9063 232.5,38.9844 Q233.1875,40.0469 234.5313,40.0469 Q235.1563,40.0469 235.75,39.7813 Q236.3438,39.5 236.9688,38.9219 L236.9688,41.6406 Z " fill="#000000"/><text fill="#000000" font-family="sans-serif" font-size="12" lengthAdjust="spacing" textLength="37" x="253" y="40.1543">Ticket</text><line style="stroke:#A80036;stroke-width:1.5;" x1="197.5" x2="314.5" y1="52" y2="52"/><text fill="#000000" font-family="sans-serif" font-size="11" lengthAdjust="spacing" textLength="52" x="202.5" y="66.2104">Plan plan</text><text fill="#000000" font-family="sans-serif" font-size="11" lengthAdjust="spacing" textLength="70" x="202.5" y="79.0151">Movie movie</text><text fill="#000000" font-family="sans-serif" font-size="11" lengthAdjust="spacing" textLength="89" x="202.5" y="91.8198">Theater theater</text><text fill="#000000" font-family="sans-serif" font-size="11" lengthAdjust="spacing" textLength="107" x="202.5" y="104.6245">DateTime useTime</text><line style="stroke:#A80036;stroke-width:1.5;" x1="197.5" x2="314.5" y1="111.2188" y2="111.2188"/><!--MD5=[e69084ab16b022bdbef99762ea85e9d6]
class Movie--><rect codeLine="8" fill="#FEFECE" filter="url(#f1fi22eynh4a0k)" height="73.6094" id="Movie" style="stroke:#A80036;stroke-width:1.5;" width="154" x="7" y="32.5"/><ellipse cx="62.25" cy="48.5" fill="#ADD1B2" rx="11" ry="11" style="stroke:#A80036;stroke-width:1.0;"/><path d="M65.2188,54.1406 Q64.6406,54.4375 64,54.5781 Q63.3594,54.7344 62.6563,54.7344 Q60.1563,54.7344 58.8281,53.0938 Q57.5156,51.4375 57.5156,48.3125 Q57.5156,45.1875 58.8281,43.5313 Q60.1563,41.875 62.6563,41.875 Q63.3594,41.875 64,42.0313 Q64.6563,42.1875 65.2188,42.4844 L65.2188,45.2031 Q64.5938,44.625 64,44.3594 Q63.4063,44.0781 62.7813,44.0781 Q61.4375,44.0781 60.75,45.1563 Q60.0625,46.2188 60.0625,48.3125 Q60.0625,50.4063 60.75,51.4844 Q61.4375,52.5469 62.7813,52.5469 Q63.4063,52.5469 64,52.2813 Q64.5938,52 65.2188,51.4219 L65.2188,54.1406 Z " fill="#000000"/><text fill="#000000" font-family="sans-serif" font-size="12" lengthAdjust="spacing" textLength="35" x="82.75" y="52.6543">Movie</text><line style="stroke:#A80036;stroke-width:1.5;" x1="8" x2="160" y1="64.5" y2="64.5"/><text fill="#000000" font-family="sans-serif" font-size="11" lengthAdjust="spacing" textLength="59" x="13" y="78.7104">String title</text><text fill="#000000" font-family="sans-serif" font-size="11" lengthAdjust="spacing" textLength="142" x="13" y="91.5151">DateTime screeningTime</text><line style="stroke:#A80036;stroke-width:1.5;" x1="8" x2="160" y1="98.1094" y2="98.1094"/><!--MD5=[6fa3e4350d44af662413ad1d54c020bd]
class Theater--><rect codeLine="13" fill="#FEFECE" filter="url(#f1fi22eynh4a0k)" height="86.4141" id="Theater" style="stroke:#A80036;stroke-width:1.5;" width="125" x="176.5" y="230.5"/><ellipse cx="211.3" cy="246.5" fill="#ADD1B2" rx="11" ry="11" style="stroke:#A80036;stroke-width:1.0;"/><path d="M214.2688,252.1406 Q213.6906,252.4375 213.05,252.5781 Q212.4094,252.7344 211.7063,252.7344 Q209.2063,252.7344 207.8781,251.0938 Q206.5656,249.4375 206.5656,246.3125 Q206.5656,243.1875 207.8781,241.5313 Q209.2063,239.875 211.7063,239.875 Q212.4094,239.875 213.05,240.0313 Q213.7063,240.1875 214.2688,240.4844 L214.2688,243.2031 Q213.6438,242.625 213.05,242.3594 Q212.4563,242.0781 211.8313,242.0781 Q210.4875,242.0781 209.8,243.1563 Q209.1125,244.2188 209.1125,246.3125 Q209.1125,248.4063 209.8,249.4844 Q210.4875,250.5469 211.8313,250.5469 Q212.4563,250.5469 213.05,250.2813 Q213.6438,250 214.2688,249.4219 L214.2688,252.1406 Z " fill="#000000"/><text fill="#000000" font-family="sans-serif" font-size="12" lengthAdjust="spacing" textLength="49" x="229.7" y="250.6543">Theater</text><line style="stroke:#A80036;stroke-width:1.5;" x1="177.5" x2="300.5" y1="262.5" y2="262.5"/><text fill="#000000" font-family="sans-serif" font-size="11" lengthAdjust="spacing" textLength="79" x="182.5" y="276.7104">Moview movie</text><text fill="#000000" font-family="sans-serif" font-size="11" lengthAdjust="spacing" textLength="113" x="182.5" y="289.5151">DateTime startTime</text><text fill="#000000" font-family="sans-serif" font-size="11" lengthAdjust="spacing" textLength="108" x="182.5" y="302.3198">Int numberOfSeats</text><line style="stroke:#A80036;stroke-width:1.5;" x1="177.5" x2="300.5" y1="308.9141" y2="308.9141"/><!--MD5=[95174e42ee347a14b6cb78d6855f19b5]
class Element--><rect codeLine="19" fill="#FEFECE" filter="url(#f1fi22eynh4a0k)" height="99.2188" id="Element" style="stroke:#A80036;stroke-width:1.5;" width="166" x="860" y="224"/><ellipse cx="913.25" cy="240" fill="#ADD1B2" rx="11" ry="11" style="stroke:#A80036;stroke-width:1.0;"/><path d="M916.2188,245.6406 Q915.6406,245.9375 915,246.0781 Q914.3594,246.2344 913.6563,246.2344 Q911.1563,246.2344 909.8281,244.5938 Q908.5156,242.9375 908.5156,239.8125 Q908.5156,236.6875 909.8281,235.0313 Q911.1563,233.375 913.6563,233.375 Q914.3594,233.375 915,233.5313 Q915.6563,233.6875 916.2188,233.9844 L916.2188,236.7031 Q915.5938,236.125 915,235.8594 Q914.4063,235.5781 913.7813,235.5781 Q912.4375,235.5781 911.75,236.6563 Q911.0625,237.7188 911.0625,239.8125 Q911.0625,241.9063 911.75,242.9844 Q912.4375,244.0469 913.7813,244.0469 Q914.4063,244.0469 915,243.7813 Q915.5938,243.5 916.2188,242.9219 L916.2188,245.6406 Z " fill="#000000"/><text fill="#000000" font-family="sans-serif" font-size="12" lengthAdjust="spacing" textLength="51" x="933.75" y="244.1543">Element</text><line style="stroke:#A80036;stroke-width:1.5;" x1="861" x2="1025" y1="256" y2="256"/><text fill="#000000" font-family="sans-serif" font-size="11" lengthAdjust="spacing" textLength="122" x="866" y="270.2104">?AgeRange ageRange</text><text fill="#000000" font-family="sans-serif" font-size="11" lengthAdjust="spacing" textLength="154" x="866" y="283.0151">?MemberShip memberShip</text><text fill="#000000" font-family="sans-serif" font-size="11" lengthAdjust="spacing" textLength="97" x="866" y="295.8198">?Student student</text><text fill="#000000" font-family="sans-serif" font-size="11" lengthAdjust="spacing" textLength="79" x="866" y="308.6245">?Handicapped</text><line style="stroke:#A80036;stroke-width:1.5;" x1="861" x2="1025" y1="315.2188" y2="315.2188"/><!--MD5=[76948b3d3a20c49eed790efa463f47b9]
class MemberShip--><rect codeLine="26" fill="#FEFECE" filter="url(#f1fi22eynh4a0k)" height="60.8047" id="MemberShip" style="stroke:#A80036;stroke-width:1.5;" width="123" x="1238.5" y="243"/><ellipse cx="1259.8" cy="259" fill="#ADD1B2" rx="11" ry="11" style="stroke:#A80036;stroke-width:1.0;"/><path d="M1262.7688,264.6406 Q1262.1906,264.9375 1261.55,265.0781 Q1260.9094,265.2344 1260.2063,265.2344 Q1257.7063,265.2344 1256.3781,263.5938 Q1255.0656,261.9375 1255.0656,258.8125 Q1255.0656,255.6875 1256.3781,254.0313 Q1257.7063,252.375 1260.2063,252.375 Q1260.9094,252.375 1261.55,252.5313 Q1262.2063,252.6875 1262.7688,252.9844 L1262.7688,255.7031 Q1262.1438,255.125 1261.55,254.8594 Q1260.9563,254.5781 1260.3313,254.5781 Q1258.9875,254.5781 1258.3,255.6563 Q1257.6125,256.7188 1257.6125,258.8125 Q1257.6125,260.9063 1258.3,261.9844 Q1258.9875,263.0469 1260.3313,263.0469 Q1260.9563,263.0469 1261.55,262.7813 Q1262.1438,262.5 1262.7688,261.9219 L1262.7688,264.6406 Z " fill="#000000"/><text fill="#000000" font-family="sans-serif" font-size="12" lengthAdjust="spacing" textLength="77" x="1275.2" y="263.1543">MemberShip</text><line style="stroke:#A80036;stroke-width:1.5;" x1="1239.5" x2="1360.5" y1="275" y2="275"/><text fill="#000000" font-family="sans-serif" font-size="11" lengthAdjust="spacing" textLength="111" x="1244.5" y="289.2104">DateTime expiredAt</text><line style="stroke:#A80036;stroke-width:1.5;" x1="1239.5" x2="1360.5" y1="295.8047" y2="295.8047"/><!--MD5=[d6181cb537bdc20c0a3007a98a56832d]
class Student--><rect codeLine="30" fill="#FEFECE" filter="url(#f1fi22eynh4a0k)" height="73.6094" id="Student" style="stroke:#A80036;stroke-width:1.5;" width="142" x="1061" y="236.5"/><ellipse cx="1103" cy="252.5" fill="#EB937F" rx="11" ry="11" style="stroke:#A80036;stroke-width:1.0;"/><path d="M1107.1094,258.5 L1099.3906,258.5 L1099.3906,246.1094 L1107.1094,246.1094 L1107.1094,248.2656 L1101.8438,248.2656 L1101.8438,250.9375 L1106.6094,250.9375 L1106.6094,253.0938 L1101.8438,253.0938 L1101.8438,256.3438 L1107.1094,256.3438 L1107.1094,258.5 Z " fill="#000000"/><text fill="#000000" font-family="sans-serif" font-size="12" lengthAdjust="spacing" textLength="50" x="1123" y="256.6543">Student</text><line style="stroke:#A80036;stroke-width:1.5;" x1="1062" x2="1202" y1="268.5" y2="268.5"/><text fill="#000000" font-family="sans-serif" font-size="11" lengthAdjust="spacing" textLength="130" x="1067" y="282.7104">Colleage 学生（大・専）</text><text fill="#000000" font-family="sans-serif" font-size="11" lengthAdjust="spacing" textLength="130" x="1067" y="295.5151">JuniorOrHigh 中・高校生</text><line style="stroke:#A80036;stroke-width:1.5;" x1="1062" x2="1202" y1="302.1094" y2="302.1094"/><!--MD5=[e4bc46eee2152ad046c537bbd64ff0d5]
class Handicapped--><rect codeLine="35" fill="#FEFECE" filter="url(#f1fi22eynh4a0k)" height="73.6094" id="Handicapped" style="stroke:#A80036;stroke-width:1.5;" width="178" x="854" y="415"/><ellipse cx="897.35" cy="431" fill="#EB937F" rx="11" ry="11" style="stroke:#A80036;stroke-width:1.0;"/><path d="M901.4594,437 L893.7406,437 L893.7406,424.6094 L901.4594,424.6094 L901.4594,426.7656 L896.1938,426.7656 L896.1938,429.4375 L900.9594,429.4375 L900.9594,431.5938 L896.1938,431.5938 L896.1938,434.8438 L901.4594,434.8438 L901.4594,437 Z " fill="#000000"/><text fill="#000000" font-family="sans-serif" font-size="12" lengthAdjust="spacing" textLength="83" x="917.65" y="435.1543">Handicapped</text><line style="stroke:#A80036;stroke-width:1.5;" x1="855" x2="1031" y1="447" y2="447"/><text fill="#000000" font-family="sans-serif" font-size="11" lengthAdjust="spacing" textLength="161" x="860" y="461.2104">Children 障がい者（学生以上）</text><text fill="#000000" font-family="sans-serif" font-size="11" lengthAdjust="spacing" textLength="166" x="860" y="474.0151">GrownUp 障がい者（高校以下）</text><line style="stroke:#A80036;stroke-width:1.5;" x1="855" x2="1031" y1="480.6094" y2="480.6094"/><!--MD5=[7aeaefaace6435e597dd8fea727c0011]
class AgeRange--><rect codeLine="40" fill="#FEFECE" filter="url(#f1fi22eynh4a0k)" height="73.6094" id="AgeRange" style="stroke:#A80036;stroke-width:1.5;" width="284" x="541" y="236.5"/><ellipse cx="646.75" cy="252.5" fill="#EB937F" rx="11" ry="11" style="stroke:#A80036;stroke-width:1.0;"/><path d="M650.8594,258.5 L643.1406,258.5 L643.1406,246.1094 L650.8594,246.1094 L650.8594,248.2656 L645.5938,248.2656 L645.5938,250.9375 L650.3594,250.9375 L650.3594,253.0938 L645.5938,253.0938 L645.5938,256.3438 L650.8594,256.3438 L650.8594,258.5 Z " fill="#000000"/><text fill="#000000" font-family="sans-serif" font-size="12" lengthAdjust="spacing" textLength="64" x="667.25" y="256.6543">AgeRange</text><line style="stroke:#A80036;stroke-width:1.5;" x1="542" x2="824" y1="268.5" y2="268.5"/><text fill="#000000" font-family="sans-serif" font-size="11" lengthAdjust="spacing" textLength="74" x="547" y="282.7104">Senior シニア</text><text fill="#000000" font-family="sans-serif" font-size="11" lengthAdjust="spacing" textLength="272" x="547" y="295.5151">TODDLERORELEMENTARY 幼児（3才以上）・小学生</text><line style="stroke:#A80036;stroke-width:1.5;" x1="542" x2="824" y1="302.1094" y2="302.1094"/><!--MD5=[f0f9cc12c6b016b91365a2a655004150]
class PlanName--><rect codeLine="45" fill="#FEFECE" filter="url(#f1fi22eynh4a0k)" height="163.2422" id="PlanName" style="stroke:#A80036;stroke-width:1.5;" width="169" x="336.5" y="192"/><ellipse cx="385.25" cy="208" fill="#EB937F" rx="11" ry="11" style="stroke:#A80036;stroke-width:1.0;"/><path d="M389.3594,214 L381.6406,214 L381.6406,201.6094 L389.3594,201.6094 L389.3594,203.7656 L384.0938,203.7656 L384.0938,206.4375 L388.8594,206.4375 L388.8594,208.5938 L384.0938,208.5938 L384.0938,211.8438 L389.3594,211.8438 L389.3594,214 Z " fill="#000000"/><text fill="#000000" font-family="sans-serif" font-size="12" lengthAdjust="spacing" textLength="63" x="405.75" y="212.1543">PlanName</text><line style="stroke:#A80036;stroke-width:1.5;" x1="337.5" x2="504.5" y1="224" y2="224"/><text fill="#000000" font-family="sans-serif" font-size="11" lengthAdjust="spacing" textLength="88" x="342.5" y="238.2104">シネマシティズン</text><text fill="#000000" font-family="sans-serif" font-size="11" lengthAdjust="spacing" textLength="157" x="342.5" y="251.0151">シネマシティズン（60才以上）</text><text fill="#000000" font-family="sans-serif" font-size="11" lengthAdjust="spacing" textLength="22" x="342.5" y="263.8198">一般</text><text fill="#000000" font-family="sans-serif" font-size="11" lengthAdjust="spacing" textLength="102" x="342.5" y="276.6245">シニア（70才以上）</text><text fill="#000000" font-family="sans-serif" font-size="11" lengthAdjust="spacing" textLength="77" x="342.5" y="289.4292">学生（大・専）</text><text fill="#000000" font-family="sans-serif" font-size="11" lengthAdjust="spacing" textLength="55" x="342.5" y="302.2339">中・高校生</text><text fill="#000000" font-family="sans-serif" font-size="11" lengthAdjust="spacing" textLength="128" x="342.5" y="315.0386">幼児（3才以上）・小学生</text><text fill="#000000" font-family="sans-serif" font-size="11" lengthAdjust="spacing" textLength="110" x="342.5" y="327.8433">障がい者（学生以上）</text><text fill="#000000" font-family="sans-serif" font-size="11" lengthAdjust="spacing" textLength="110" x="342.5" y="340.6479">障がい者（高校以下）</text><line style="stroke:#A80036;stroke-width:1.5;" x1="337.5" x2="504.5" y1="347.2422" y2="347.2422"/><!--MD5=[b3be63f686ea56a43222251ea576b753]
class Plan--><rect codeLine="57" fill="#FEFECE" filter="url(#f1fi22eynh4a0k)" height="124.8281" id="Plan" style="stroke:#A80036;stroke-width:1.5;" width="108" x="367" y="7"/><ellipse cx="404.05" cy="23" fill="#ADD1B2" rx="11" ry="11" style="stroke:#A80036;stroke-width:1.0;"/><path d="M407.0188,28.6406 Q406.4406,28.9375 405.8,29.0781 Q405.1594,29.2344 404.4563,29.2344 Q401.9563,29.2344 400.6281,27.5938 Q399.3156,25.9375 399.3156,22.8125 Q399.3156,19.6875 400.6281,18.0313 Q401.9563,16.375 404.4563,16.375 Q405.1594,16.375 405.8,16.5313 Q406.4563,16.6875 407.0188,16.9844 L407.0188,19.7031 Q406.3938,19.125 405.8,18.8594 Q405.2063,18.5781 404.5813,18.5781 Q403.2375,18.5781 402.55,19.6563 Q401.8625,20.7188 401.8625,22.8125 Q401.8625,24.9063 402.55,25.9844 Q403.2375,27.0469 404.5813,27.0469 Q405.2063,27.0469 405.8,26.7813 Q406.3938,26.5 407.0188,25.9219 L407.0188,28.6406 Z " fill="#000000"/><text fill="#000000" font-family="sans-serif" font-size="12" lengthAdjust="spacing" textLength="27" x="422.95" y="27.1543">Plan</text><line style="stroke:#A80036;stroke-width:1.5;" x1="368" x2="474" y1="39" y2="39"/><text fill="#000000" font-family="sans-serif" font-size="11" lengthAdjust="spacing" textLength="93" x="373" y="53.2104">PlanName name</text><text fill="#000000" font-family="sans-serif" font-size="11" lengthAdjust="spacing" textLength="46" x="373" y="66.0151">Int price</text><text fill="#000000" font-family="sans-serif" font-size="11" lengthAdjust="spacing" textLength="80" x="373" y="78.8198">Int dayOfWeek</text><text fill="#000000" font-family="sans-serif" font-size="11" lengthAdjust="spacing" textLength="50" x="373" y="91.6245">Bool late</text><text fill="#000000" font-family="sans-serif" font-size="11" lengthAdjust="spacing" textLength="84" x="373" y="104.4292">Bool movieDay</text><text fill="#000000" font-family="sans-serif" font-size="11" lengthAdjust="spacing" textLength="96" x="373" y="117.2339">Element element</text><line style="stroke:#A80036;stroke-width:1.5;" x1="368" x2="474" y1="123.8281" y2="123.8281"/><!--MD5=[2ce0c9fb7f55b1e256ab28a8ea6b25ec]
class Customer--><rect codeLine="66" fill="#FEFECE" filter="url(#f1fi22eynh4a0k)" height="60.8047" id="Customer" style="stroke:#A80036;stroke-width:1.5;" width="108" x="889" y="39"/><ellipse cx="911.2" cy="55" fill="#ADD1B2" rx="11" ry="11" style="stroke:#A80036;stroke-width:1.0;"/><path d="M914.1688,60.6406 Q913.5906,60.9375 912.95,61.0781 Q912.3094,61.2344 911.6063,61.2344 Q909.1063,61.2344 907.7781,59.5938 Q906.4656,57.9375 906.4656,54.8125 Q906.4656,51.6875 907.7781,50.0313 Q909.1063,48.375 911.6063,48.375 Q912.3094,48.375 912.95,48.5313 Q913.6063,48.6875 914.1688,48.9844 L914.1688,51.7031 Q913.5438,51.125 912.95,50.8594 Q912.3563,50.5781 911.7313,50.5781 Q910.3875,50.5781 909.7,51.6563 Q909.0125,52.7188 909.0125,54.8125 Q909.0125,56.9063 909.7,57.9844 Q910.3875,59.0469 911.7313,59.0469 Q912.3563,59.0469 912.95,58.7813 Q913.5438,58.5 914.1688,57.9219 L914.1688,60.6406 Z " fill="#000000"/><text fill="#000000" font-family="sans-serif" font-size="12" lengthAdjust="spacing" textLength="60" x="926.8" y="59.1543">Customer</text><line style="stroke:#A80036;stroke-width:1.5;" x1="890" x2="996" y1="71" y2="71"/><text fill="#000000" font-family="sans-serif" font-size="11" lengthAdjust="spacing" textLength="96" x="895" y="85.2104">Element element</text><line style="stroke:#A80036;stroke-width:1.5;" x1="890" x2="996" y1="91.8047" y2="91.8047"/><!--MD5=[40e044ec38a6f42acb0ff0b6b567241d]
link Ticket to Plan--><path codeLine="70" d="M315.6191,69.5 C332.6338,69.5 349.6484,69.5 366.663,69.5 " fill="none" id="Ticket-Plan" style="stroke:#A80036;stroke-width:1.0;"/><!--MD5=[689ce0c5eb806654abc850cac13b65b6]
link Movie to Ticket--><path codeLine="71" d="M161.2656,69.5 C172.9841,69.5 184.7025,69.5 196.421,69.5 " fill="none" id="Movie-Ticket" style="stroke:#A80036;stroke-width:1.0;"/><!--MD5=[2a9c6ebfd405fca1d0a078464a031413]
link Ticket to Theater--><path codeLine="72" d="M251.8631,119.1432 C249.0325,153.1095 245.3164,197.7031 242.6066,230.2213 " fill="none" id="Ticket-Theater" style="stroke:#A80036;stroke-width:1.0;"/><!--MD5=[f148b31edd59a7fe6bcb5e73785d60c1]
link Plan to Element--><path codeLine="73" d="M475.236,78.0596 C558.1833,92.697 719.8805,127.4057 843,192 C859.4613,200.6364 875.7602,212.2397 890.2717,223.9782 " fill="none" id="Plan-Element" style="stroke:#A80036;stroke-width:1.0;"/><!--MD5=[bc56759dcce675cd09aeaaf62831dbc8]
link Element to MemberShip--><path codeLine="74" d="M980.3384,223.983 C1001.282,200.4087 1029.5948,174.6504 1061.5,162 C1120.1677,138.7382 1146.0999,135.7657 1203.5,162 C1239.5903,178.4948 1267.3537,215.8905 1283.6431,242.8305 " fill="none" id="Element-MemberShip" style="stroke:#A80036;stroke-width:1.0;"/><!--MD5=[ee13444637fbe319adb63f467298dc64]
link AgeRange to Element--><path codeLine="75" d="M825.1875,273.5 C836.6926,273.5 848.1978,273.5 859.7029,273.5 " fill="none" id="AgeRange-Element" style="stroke:#A80036;stroke-width:1.0;"/><!--MD5=[c191eb20233367e4f7eaa5cf758664d1]
link Element to Student--><path codeLine="76" d="M1026.0566,273.5 C1037.6442,273.5 1049.2318,273.5 1060.8193,273.5 " fill="none" id="Element-Student" style="stroke:#A80036;stroke-width:1.0;"/><!--MD5=[c378b79806346001de911263e11d925a]
link Element to Handicapped--><path codeLine="77" d="M943,323.2222 C943,352.3126 943,388.4242 943,414.9978 " fill="none" id="Element-Handicapped" style="stroke:#A80036;stroke-width:1.0;"/><!--MD5=[70cba8bbcd9492f220b8bba8dce4a59f]
link Plan to PlanName--><path codeLine="78" d="M421,132.0931 C421,150.9498 421,171.9298 421,191.8333 " fill="none" id="Plan-PlanName" style="stroke:#A80036;stroke-width:1.0;"/><!--MD5=[cb8c54731a3750deb3dbf693c3d2d37b]
link Customer to Element--><path codeLine="79" d="M943,100.0409 C943,132.7192 943,185.0627 943,223.7122 " fill="none" id="Customer-Element" style="stroke:#A80036;stroke-width:1.0;"/><!--MD5=[2219667cd921f56c4fb64ed2a53064b3]
@startuml
class Ticket {
    Plan plan
    Movie movie
    Theater theater
    DateTime useTime
}

class Movie {
    String title
    DateTime screeningTime
}

class Theater {
    Moview movie
    DateTime startTime
    Int numberOfSeats
}

class Element {
    ?AgeRange ageRange
    ?MemberShip memberShip
    ?Student student
    ?Handicapped
}

class MemberShip {
    DateTime expiredAt
}

enum Student {
    Colleage 学生（大・専）
    JuniorOrHigh 中・高校生
}

enum Handicapped {
    Children 障がい者（学生以上）
    GrownUp 障がい者（高校以下）
}

enum AgeRange {
    Senior シニア
    TODDLERORELEMENTARY 幼児（3才以上）・小学生
}

enum PlanName {
    シネマシティズン
    シネマシティズン（60才以上）
    一般
    シニア（70才以上）
    学生（大・専）
    中・高校生
    幼児（3才以上）・小学生
    障がい者（学生以上）
    障がい者（高校以下）
}

class Plan {
    PlanName name
    Int price
    Int dayOfWeek
    Bool late
    Bool movieDay
    Element element
}

class Customer {
    Element element
}

Ticket -right- Plan
Ticket -left- Movie
Ticket -down- Theater
Plan - - Element
Element - MemberShip
Element -left- AgeRange
Element -right- Student
Element -down- Handicapped
Plan - - PlanName
Customer - - Element
@enduml

PlantUML version 1.2021.01(Tue Feb 02 07:55:08 UTC 2021)
(GPL source distribution)
Java Runtime: OpenJDK Runtime Environment
JVM: OpenJDK 64-Bit Server VM
Default Encoding: UTF-8
Language: en
Country: null
--></g></svg>